<svg xmlns="http://www.w3.org/2000/svg" viewBox="0 0 100 100">
  <rect width="100" height="100" fill="#1e40af"/>
  <path d="M50 20 C30 20 20 35 20 50 C20 50 20 60 35 65 L30 75 L40 70 C45 72 50 72 50 72 C50 72 55 72 60 70 L70 75 L65 65 C80 60 80 50 80 50 C80 35 70 20 50 20 Z" fill="#60a5fa"/>
  <circle cx="50" cy="45" r="20" fill="#dbeafe"/>
  <circle cx="45" cy="42" r="2" fill="#1e40af"/>
  <circle cx="55" cy="42" r="2" fill="#1e40af"/>
  <path d="M45 50 Q50 53 55 50" stroke="#1e40af" stroke-width="1.5" fill="none"/>
</svg>